<svg version="1.1" xmlns="http://www.w3.org/2000/svg" xmlns:xlink="http://www.w3.org/1999/xlink" width="76.13102" height="154.36524" viewBox="0,0,76.13102,154.36524"><defs><linearGradient x1="240" y1="187.9089" x2="240" y2="172.0911" gradientUnits="userSpaceOnUse" id="color-1"><stop offset="0" stop-color="#000000"></stop><stop offset="1" stop-color="#000000" stop-opacity="0"></stop></linearGradient></defs><g transform="translate(-201.51196,-107.78656)"><g data-paper-data="{&quot;isPaintingLayer&quot;:true}" fill-rule="nonzero" stroke-linejoin="miter" stroke-miterlimit="10" stroke-dasharray="" stroke-dashoffset="0" style="mix-blend-mode: normal"><g stroke="#000000" stroke-width="2"><path d="M238.73858,232.85854v-52.17512h12.51258v52.17512z" fill="#ffffff" stroke-linecap="butt"></path><path d="M237.79424,225.77594v-16.76215h13.69302v16.76215z" fill="#a8a8a8" stroke-linecap="butt"></path><path d="M237.04379,244.3846v-13.22084h14.1652v13.22084z" fill="#5dfbff" stroke-linecap="butt"></path><path d="M250.45854,240.32894l18.41475,6.37434l-6.84651,8.97128l-25.73343,-4.48564l0.94434,-10.15173" fill="#5dfbff" stroke-linecap="round"></path></g><g stroke="#000000" stroke-width="2"><path d="M222.8786,238.24635v-52.17512h12.51259v52.17512z" fill="#ffffff" stroke-linecap="butt"></path><path d="M221.93425,231.16375v-16.76215h13.69302v16.76215z" fill="#a8a8a8" stroke-linecap="butt"></path><path d="M221.18381,249.77241v-13.22084h14.1652v13.22084z" fill="#5dfbff" stroke-linecap="butt"></path><path d="M234.59856,245.71675l18.41475,6.37434l-6.84651,8.97129l-25.73343,-4.48564l0.94435,-10.15172" fill="#5dfbff" stroke-linecap="round"></path></g><path d="M221.70329,207.50408v-55.00816h36.59341v55.00816z" fill="#ffffff" stroke="#000000" stroke-width="2" stroke-linecap="butt"></path><path d="M258.91547,197.31901v-52.17512h12.51259v52.17512z" fill="#ffffff" stroke="#000000" stroke-width="2" stroke-linecap="butt"></path><path d="M207.96297,196.88902v-52.17512h12.51259v52.17512z" fill="#ffffff" stroke="#000000" stroke-width="2" stroke-linecap="butt"></path><path d="M216.65598,168.51645v-27.14995h45.5647v27.14995z" fill="#a8a8a8" stroke="#000000" stroke-width="2" stroke-linecap="butt"></path><path d="M219.48902,209.59551v-15.58171h40.3708v15.58171z" fill="#a8a8a8" stroke="#000000" stroke-width="2" stroke-linecap="butt"></path><path d="M258.91547,191.65294v-16.76214h13.69302v16.76214z" fill="#a8a8a8" stroke="#000000" stroke-width="2" stroke-linecap="butt"></path><path d="M207.01862,189.80643v-16.76215h13.69302v16.76215z" fill="#a8a8a8" stroke="#000000" stroke-width="2" stroke-linecap="butt"></path><text transform="translate(221.84989,159.01397) scale(0.32095,0.32095)" font-size="40" xml:space="preserve" fill="#ffffff" fill-rule="nonzero" stroke="none" stroke-width="1" stroke-linecap="butt" stroke-linejoin="miter" stroke-miterlimit="10" stroke-dasharray="" stroke-dashoffset="0" font-family="Arial Black" font-weight="normal" text-anchor="start" style="mix-blend-mode: normal"><tspan x="0" dy="0">Pinco</tspan></text><path d="M206.26818,208.41508v-13.22085h14.16519v13.22085z" fill="#5dfbff" stroke="#000000" stroke-width="2" stroke-linecap="butt"></path><path d="M258.48548,207.51292v-13.22084h14.1652v13.22084z" fill="#5dfbff" stroke="#000000" stroke-width="2" stroke-linecap="butt"></path><path d="M206.50426,206.2903l-3.77738,11.09607l5.90216,3.30521l1.41652,-6.37434l3.5413,3.06912l8.97129,2.59695l-2.12478,-14.16519" fill="#5dfbff" stroke="#000000" stroke-width="2" stroke-linecap="round"></path><path d="M272.65068,206.33248l3.77738,11.09607l-5.90216,3.30521l-1.41652,-6.37433l-3.5413,3.06912l-8.97129,2.59695l2.12478,-14.16519" data-paper-data="{&quot;index&quot;:null}" fill="#5dfbff" stroke="#000000" stroke-width="2" stroke-linecap="round"></path><path d="M204.85166,146.56041v-6.84651h68.22901v6.84651z" fill="#5dfbff" stroke="#000000" stroke-width="2" stroke-linecap="butt"></path><path d="M215.94773,177.95992v-12.74867h46.50905v12.74867z" fill="#5dfbff" stroke="#000000" stroke-width="2" stroke-linecap="butt"></path><path d="M247.23099,172.0911v15.8178h-14.46199v-15.8178z" data-paper-data="{&quot;index&quot;:null}" fill="#5dfbff" stroke="url(#color-1)" stroke-width="2" stroke-linecap="butt"></path><path d="M223.50249,177.01557v-8.49912h31.87168v8.49912z" fill="#5dfbff" stroke="none" stroke-width="2" stroke-linecap="butt"></path><path d="M229.16857,139.7139l-8.7352,-3.06912l8.7352,-26.67778h21.0117l8.49912,25.73343l-8.49912,4.01347z" fill="#ffffff" stroke="#000000" stroke-width="2" stroke-linecap="butt"></path><path d="M226.33553,116.8135v-8.02694h26.44169v8.02694z" fill="#a8a8a8" stroke="#000000" stroke-width="2" stroke-linecap="butt"></path><path d="M238.13986,128.14566c0,2.86851 -1.79689,5.1939 -4.01347,5.1939c-2.21658,0 -4.01347,-2.32539 -4.01347,-5.1939c0,-2.86851 1.79689,-5.1939 4.01347,-5.1939c2.21658,0 4.01347,2.32539 4.01347,5.1939z" fill="#5dfbff" stroke="#000000" stroke-width="2" stroke-linecap="butt"></path><path d="M254.19374,128.49979c0,2.80332 -1.95544,5.07586 -4.3676,5.07586c-2.41216,0 -4.3676,-2.27254 -4.3676,-5.07586c0,-2.80332 1.95544,-5.07586 4.3676,-5.07586c2.41216,0 4.3676,2.27254 4.3676,5.07586z" fill="#5dfbff" stroke="#000000" stroke-width="2" stroke-linecap="butt"></path></g></g></svg>