<svg version="1.1" xmlns="http://www.w3.org/2000/svg" xmlns:xlink="http://www.w3.org/1999/xlink" width="643" height="474" viewBox="0,0,643,474"><defs><linearGradient x1="342.42253" y1="74.93973" x2="342.42253" y2="59.12192" gradientUnits="userSpaceOnUse" id="color-1"><stop offset="0" stop-color="#000000"></stop><stop offset="1" stop-color="#000000" stop-opacity="0"></stop></linearGradient></defs><g transform="translate(81.5,57)"><g data-paper-data="{&quot;isPaintingLayer&quot;:true}" fill-rule="nonzero" stroke-linejoin="miter" stroke-miterlimit="10" stroke-dasharray="" stroke-dashoffset="0" style="mix-blend-mode: normal"><path d="M-81.5,417v-474h643v474z" fill="#ffffff" stroke="none" stroke-width="NaN" stroke-linecap="butt"></path><text transform="translate(21.51113,203.87105) scale(1.77102,1.77102)" font-size="40" xml:space="preserve" fill="#5dfbff" fill-rule="nonzero" stroke="#5dfbff" stroke-width="2" stroke-linecap="butt" stroke-linejoin="miter" stroke-miterlimit="10" stroke-dasharray="" stroke-dashoffset="0" font-family="Arial Black" font-weight="normal" text-anchor="start" style="mix-blend-mode: normal"><tspan x="0" dy="0">Pinco Code</tspan></text><text transform="translate(21.51113,220.42519) scale(1.77102,1.77102)" font-size="40" xml:space="preserve" fill="#000000" fill-rule="nonzero" stroke="#000000" stroke-width="2" stroke-linecap="butt" stroke-linejoin="miter" stroke-miterlimit="10" stroke-dasharray="" stroke-dashoffset="0" font-family="Arial Black" font-weight="normal" text-anchor="start" style="mix-blend-mode: normal"><tspan x="0" dy="0">Pinco Code</tspan></text><text transform="translate(21.84845,142.09541) scale(1.65089,1.65089)" font-size="16" xml:space="preserve" fill="#4f4f4f" fill-rule="nonzero" stroke="none" stroke-width="1" stroke-linecap="butt" stroke-linejoin="miter" stroke-miterlimit="10" stroke-dasharray="" stroke-dashoffset="0" font-family="&quot;Helvetica Neue&quot;, Helvetica, sans-serif" font-weight="500" text-anchor="start" style="mix-blend-mode: normal"><tspan x="0" dy="0">maked by MMStudio</tspan></text><g stroke="#000000" stroke-width="2"><path d="M341.16111,119.88937v-52.17512h12.51258v52.17512z" fill="#ffffff" stroke-linecap="butt"></path><path d="M340.21677,112.80677v-16.76215h13.69302v16.76215z" fill="#a8a8a8" stroke-linecap="butt"></path><path d="M339.46632,131.41542v-13.22084h14.1652v13.22084z" fill="#5dfbff" stroke-linecap="butt"></path><path d="M352.88107,127.35976l18.41475,6.37434l-6.84651,8.97128l-25.73343,-4.48564l0.94434,-10.15173" fill="#5dfbff" stroke-linecap="round"></path></g><g stroke="#000000" stroke-width="2"><path d="M325.30113,125.27718v-52.17512h12.51259v52.17512z" fill="#ffffff" stroke-linecap="butt"></path><path d="M324.35678,118.19457v-16.76215h13.69302v16.76215z" fill="#a8a8a8" stroke-linecap="butt"></path><path d="M323.60634,136.80323v-13.22084h14.1652v13.22084z" fill="#5dfbff" stroke-linecap="butt"></path><path d="M337.02109,132.74757l18.41475,6.37434l-6.84651,8.97129l-25.73343,-4.48564l0.94435,-10.15172" fill="#5dfbff" stroke-linecap="round"></path></g><path d="M371.10235,83.49863l-9.56286,-51.29127l12.30063,-2.29336l9.56286,51.29127z" fill="#ffffff" stroke="#000000" stroke-width="2" stroke-linecap="butt"></path><path d="M370.06385,77.92855l-3.07223,-16.47819l13.46106,-2.50971l3.07223,16.47819z" fill="#a8a8a8" stroke="#000000" stroke-width="2" stroke-linecap="butt"></path><path d="M372.54802,93.59867l-2.42317,-12.99688l13.92524,-2.59625l2.42317,12.99688z" fill="#5dfbff" stroke="#000000" stroke-width="2" stroke-linecap="butt"></path><path d="M373.84168,85.24525l0.85867,-11.68991l6.72443,-0.7362l-1.18684,6.42106l4.45901,-1.44137l9.27281,1.115l-7.49084,12.20879" data-paper-data="{&quot;index&quot;:null}" fill="#5dfbff" stroke="#000000" stroke-width="2" stroke-linecap="round"></path><path d="M324.12582,94.5349v-55.00816h36.59341v55.00816z" fill="#ffffff" stroke="#000000" stroke-width="2" stroke-linecap="butt"></path><path d="M310.3855,83.91985v-52.17512h12.51259v52.17512z" fill="#ffffff" stroke="#000000" stroke-width="2" stroke-linecap="butt"></path><path d="M319.07851,55.54728v-27.14995h45.5647v27.14995z" fill="#a8a8a8" stroke="#000000" stroke-width="2" stroke-linecap="butt"></path><path d="M321.91155,96.62634v-15.58171h40.3708v15.58171z" fill="#a8a8a8" stroke="#000000" stroke-width="2" stroke-linecap="butt"></path><path d="M309.44115,76.83726v-16.76215h13.69302v16.76215z" fill="#a8a8a8" stroke="#000000" stroke-width="2" stroke-linecap="butt"></path><text transform="translate(324.27242,46.0448) scale(0.32095,0.32095)" font-size="40" xml:space="preserve" fill="#ffffff" fill-rule="nonzero" stroke="none" stroke-width="1" stroke-linecap="butt" stroke-linejoin="miter" stroke-miterlimit="10" stroke-dasharray="" stroke-dashoffset="0" font-family="Arial Black" font-weight="normal" text-anchor="start" style="mix-blend-mode: normal"><tspan x="0" dy="0">Pinco</tspan></text><path d="M308.69071,95.44591v-13.22085h14.16519v13.22085z" fill="#5dfbff" stroke="#000000" stroke-width="2" stroke-linecap="butt"></path><path d="M322.8559,92.84894l2.12478,14.16519l-8.97129,-2.59695l-3.5413,-3.06912l-1.41652,6.37434l-5.90216,-3.30521l3.77738,-11.09607" fill="#5dfbff" stroke="#000000" stroke-width="2" stroke-linecap="round"></path><path d="M307.27419,33.59124v-6.84651h68.22901v6.84651z" fill="#5dfbff" stroke="#000000" stroke-width="2" stroke-linecap="butt"></path><path d="M318.37026,64.99075v-12.74867h46.50905v12.74867z" fill="#5dfbff" stroke="#000000" stroke-width="2" stroke-linecap="butt"></path><path d="M349.65352,59.12192v15.8178h-14.46199v-15.8178z" data-paper-data="{&quot;index&quot;:null}" fill="#5dfbff" stroke="url(#color-1)" stroke-width="2" stroke-linecap="butt"></path><path d="M325.92502,64.04639v-8.49912h31.87168v8.49912z" fill="#5dfbff" stroke="none" stroke-width="2" stroke-linecap="butt"></path><path d="M331.5911,26.74472l-8.7352,-3.06912l8.7352,-26.67778h21.0117l8.49912,25.73343l-8.49912,4.01347z" fill="#ffffff" stroke="#000000" stroke-width="2" stroke-linecap="butt"></path><path d="M328.75806,3.84432v-8.02694h26.44169v8.02694z" fill="#a8a8a8" stroke="#000000" stroke-width="2" stroke-linecap="butt"></path><path d="M329.83333,17c0,0 0.95024,-4.16252 3,-4.33333c2.04976,-0.17081 5,3.66667 5,3.66667" fill="none" stroke="#000000" stroke-width="2" stroke-linecap="round"></path><path d="M344.5,17.66667c0,0 1.90799,-5.13629 4.66667,-5.33333c2.75867,-0.19705 4.66667,4.66667 4.66667,4.66667" fill="none" stroke="#000000" stroke-width="2" stroke-linecap="round"></path></g></g></svg>