<svg version="1.1" xmlns="http://www.w3.org/2000/svg" xmlns:xlink="http://www.w3.org/1999/xlink" width="494.00917" height="458.06793" viewBox="0,0,494.00917,458.06793"><defs><linearGradient x1="78.0892" y1="265.93973" x2="78.0892" y2="250.12193" gradientUnits="userSpaceOnUse" id="color-1"><stop offset="0" stop-color="#000000"></stop><stop offset="1" stop-color="#000000" stop-opacity="0"></stop></linearGradient></defs><g transform="translate(9.86665,31.17873)"><g data-paper-data="{&quot;isPaintingLayer&quot;:true}" fill-rule="nonzero" stroke-linejoin="miter" stroke-miterlimit="10" stroke-dasharray="" stroke-dashoffset="0" style="mix-blend-mode: normal"><path d="M-9.86665,426.8892v-458.06793h493.2v458.06793z" fill="#ffffff" stroke="none" stroke-width="0" stroke-linecap="butt"></path><path d="M0.41504,360.18018v-359.86186h477.47748v359.86186z" fill="none" stroke="#4f4f4f" stroke-width="12.5" stroke-linecap="butt"></path><g stroke="#000000" stroke-width="2"><path d="M76.82778,310.88937v-52.17512h12.51258v52.17512z" fill="#ffffff" stroke-linecap="butt"></path><path d="M75.88344,303.80677v-16.76215h13.69302v16.76215z" fill="#a8a8a8" stroke-linecap="butt"></path><path d="M75.13299,322.41543v-13.22084h14.1652v13.22084z" fill="#5dfbff" stroke-linecap="butt"></path><path d="M88.54774,318.35977l18.41475,6.37434l-6.84651,8.97128l-25.73343,-4.48564l0.94434,-10.15173" fill="#5dfbff" stroke-linecap="round"></path></g><g stroke="#000000" stroke-width="2"><path d="M60.9678,316.27718v-52.17512h12.51259v52.17512z" fill="#ffffff" stroke-linecap="butt"></path><path d="M60.02345,309.19458v-16.76215h13.69302v16.76215z" fill="#a8a8a8" stroke-linecap="butt"></path><path d="M59.27301,327.80323v-13.22084h14.1652v13.22084z" fill="#5dfbff" stroke-linecap="butt"></path><path d="M72.68776,323.74758l18.41475,6.37434l-6.84651,8.97129l-25.73343,-4.48564l0.94435,-10.15172" fill="#5dfbff" stroke-linecap="round"></path></g><path d="M59.79249,285.5349v-55.00816h36.59341v55.00816z" fill="#ffffff" stroke="#000000" stroke-width="2" stroke-linecap="butt"></path><path d="M110.66545,274.16246l-13.54646,-50.38588l12.0835,-3.24869l13.54646,50.38588z" fill="#ffffff" stroke="#000000" stroke-width="2" stroke-linecap="butt"></path><path d="M109.19434,268.6907l-4.35203,-16.18732l13.22344,-3.55518l4.35203,16.18731z" fill="#a8a8a8" stroke="#000000" stroke-width="2" stroke-linecap="butt"></path><path d="M112.89689,284.11843l-3.43259,-12.76746l13.67943,-3.67777l3.43259,12.76745z" fill="#5dfbff" stroke="#000000" stroke-width="2" stroke-linecap="butt"></path><path d="M123.84278,276.70731l9.29458,-7.14158l5.02599,4.52762l-5.58147,3.38908l4.04403,2.36772l5.34117,7.6616c0,0 -15.36008,3.12161 -20.85936,2.36725c-4.14512,-0.56861 -9.23763,-6.49579 -9.23763,-6.49579" data-paper-data="{&quot;index&quot;:null}" fill="#5dfbff" stroke="#000000" stroke-width="2" stroke-linecap="round"></path><path d="M46.05217,274.91985v-52.17512h12.51259v52.17512z" fill="#ffffff" stroke="#000000" stroke-width="2" stroke-linecap="butt"></path><path d="M54.74518,246.54728v-27.14995h45.5647v27.14995z" fill="#a8a8a8" stroke="#000000" stroke-width="2" stroke-linecap="butt"></path><path d="M57.57822,287.62634v-15.58171h40.3708v15.58171z" fill="#a8a8a8" stroke="#000000" stroke-width="2" stroke-linecap="butt"></path><path d="M45.10782,267.83726v-16.76215h13.69302v16.76215z" fill="#a8a8a8" stroke="#000000" stroke-width="2" stroke-linecap="butt"></path><text transform="translate(59.93909,237.0448) scale(0.32095,0.32095)" font-size="40" xml:space="preserve" fill="#ffffff" fill-rule="nonzero" stroke="none" stroke-width="1" stroke-linecap="butt" stroke-linejoin="miter" stroke-miterlimit="10" stroke-dasharray="" stroke-dashoffset="0" font-family="Arial Black" font-weight="normal" text-anchor="start" style="mix-blend-mode: normal"><tspan x="0" dy="0">Pinco</tspan></text><path d="M44.35738,286.44591v-13.22085h14.16519v13.22085z" fill="#5dfbff" stroke="#000000" stroke-width="2" stroke-linecap="butt"></path><path d="M58.52257,283.84895l2.12478,14.16519l-8.97129,-2.59695l-3.5413,-3.06912l-1.41652,6.37434l-5.90216,-3.30521l3.77738,-11.09607" fill="#5dfbff" stroke="#000000" stroke-width="2" stroke-linecap="round"></path><path d="M42.94086,224.59124v-6.84651h68.22901v6.84651z" fill="#5dfbff" stroke="#000000" stroke-width="2" stroke-linecap="butt"></path><path d="M54.03693,255.99075v-12.74867h46.50905v12.74867z" fill="#5dfbff" stroke="#000000" stroke-width="2" stroke-linecap="butt"></path><path d="M85.32019,250.12193v15.8178h-14.46199v-15.8178z" data-paper-data="{&quot;index&quot;:null}" fill="#5dfbff" stroke="url(#color-1)" stroke-width="2" stroke-linecap="butt"></path><path d="M61.59169,255.0464v-8.49912h31.87168v8.49912z" fill="#5dfbff" stroke="none" stroke-width="2" stroke-linecap="butt"></path><path d="M67.25777,217.74473l-8.7352,-3.06912l8.7352,-26.67778h21.0117l8.49912,25.73343l-8.49912,4.01347z" fill="#ffffff" stroke="#000000" stroke-width="2" stroke-linecap="butt"></path><path d="M64.42472,194.84433v-8.02694h26.44169v8.02694z" fill="#a8a8a8" stroke="#000000" stroke-width="2" stroke-linecap="butt"></path><path d="M76.22906,206.17649c0,2.86851 -1.79689,5.1939 -4.01347,5.1939c-2.21658,0 -4.01347,-2.32539 -4.01347,-5.1939c0,-2.86851 1.79689,-5.1939 4.01347,-5.1939c2.21658,0 4.01347,2.32539 4.01347,5.1939z" fill="#5dfbff" stroke="#000000" stroke-width="2" stroke-linecap="butt"></path><path d="M92.28294,206.53062c0,2.80332 -1.95544,5.07586 -4.3676,5.07586c-2.41216,0 -4.3676,-2.27254 -4.3676,-5.07586c0,-2.80332 1.95544,-5.07586 4.3676,-5.07586c2.41216,0 4.3676,2.27254 4.3676,5.07586z" fill="#5dfbff" stroke="#000000" stroke-width="2" stroke-linecap="butt"></path><g stroke-linecap="butt" text-anchor="start"><text transform="translate(143.40468,327.12444) scale(0.82345,0.82345)" font-size="40" xml:space="preserve" fill="#5dfbff" fill-rule="nonzero" stroke="#5dfbff" stroke-width="2" stroke-linecap="butt" stroke-linejoin="miter" stroke-miterlimit="10" stroke-dasharray="" stroke-dashoffset="0" font-family="Arial Black" font-weight="normal" text-anchor="start" style="mix-blend-mode: normal"><tspan x="0" dy="0">Pinco Code</tspan></text><text transform="translate(143.40468,334.82142) scale(0.82345,0.82345)" font-size="40" xml:space="preserve" fill="#000000" fill-rule="nonzero" stroke="#000000" stroke-width="2" stroke-linecap="butt" stroke-linejoin="miter" stroke-miterlimit="10" stroke-dasharray="" stroke-dashoffset="0" font-family="Arial Black" font-weight="normal" text-anchor="start" style="mix-blend-mode: normal"><tspan x="0" dy="0">Pinco Code</tspan></text><text transform="translate(143.56151,298.40137) scale(0.76759,0.76759)" font-size="16" xml:space="preserve" fill="#4f4f4f" fill-rule="nonzero" stroke="none" stroke-width="1" stroke-linecap="butt" stroke-linejoin="miter" stroke-miterlimit="10" stroke-dasharray="" stroke-dashoffset="0" font-family="&quot;Helvetica Neue&quot;, Helvetica, sans-serif" font-weight="500" text-anchor="start" style="mix-blend-mode: normal"><tspan x="0" dy="0">maked by MMStudio</tspan></text></g><text transform="translate(109.84845,48.09541) scale(1.65089,1.65089)" font-size="16" xml:space="preserve" fill="#4f4f4f" fill-rule="nonzero" stroke="none" stroke-width="1" stroke-linecap="butt" stroke-linejoin="miter" stroke-miterlimit="10" stroke-dasharray="" stroke-dashoffset="0" font-family="&quot;Helvetica Neue&quot;, Helvetica, sans-serif" font-weight="500" text-anchor="start" style="mix-blend-mode: normal"><tspan x="0" dy="0">How to Insert Script...</tspan></text><path d="M125.98335,199.35524v-127h230.16667v127z" fill="#ffffff" stroke="#4f4f4f" stroke-width="2.5" stroke-linecap="butt"></path><text transform="translate(131.93909,92.5448) scale(0.29746,0.32095)" font-size="40" xml:space="preserve" fill="#000000" fill-rule="nonzero" stroke="none" stroke-width="1" stroke-linecap="butt" stroke-linejoin="miter" stroke-miterlimit="10" stroke-dasharray="" stroke-dashoffset="0" font-family="Arial Black" font-weight="normal" text-anchor="start" style="mix-blend-mode: normal"><tspan x="0" dy="0">If then the action is 22 will be the</tspan><tspan x="0" dy="48px">costume change script:</tspan></text><text transform="translate(15.98335,76.44543) scale(2.13899,2.13899)" font-size="40" xml:space="preserve" fill="#4f4f4f" fill-rule="nonzero" stroke="#4f4f4f" stroke-width="3" stroke-linecap="butt" stroke-linejoin="miter" stroke-miterlimit="10" stroke-dasharray="" stroke-dashoffset="0" font-family="Sans Serif" font-weight="normal" text-anchor="start" style="mix-blend-mode: normal"><tspan x="0" dy="0">3</tspan></text><text transform="translate(149.18178,119.03626) scale(0.48266,0.48266)" font-size="16" xml:space="preserve" fill="#4f4f4f" fill-rule="nonzero" stroke="none" stroke-width="1" stroke-linecap="butt" stroke-linejoin="miter" stroke-miterlimit="10" stroke-dasharray="" stroke-dashoffset="0" font-family="&quot;Helvetica Neue&quot;, Helvetica, sans-serif" font-weight="500" text-anchor="start" style="mix-blend-mode: normal"><tspan x="0" dy="0">Choose your costume you want</tspan></text><path d="M145.31669,147.68857v-16h94v16z" fill="#ff8500" stroke="none" stroke-width="0" stroke-linecap="butt"></path><path d="M145.31669,167.18857v-16h94v16z" fill="#ff8500" stroke="none" stroke-width="0" stroke-linecap="butt"></path><path d="M144.15002,188.68857v-16h94v16z" fill="#ff8500" stroke="none" stroke-width="0" stroke-linecap="butt"></path><text transform="translate(259.77243,151.37813) scale(0.32095,0.32095)" font-size="40" xml:space="preserve" fill="#000000" fill-rule="nonzero" stroke="none" stroke-width="1" stroke-linecap="butt" stroke-linejoin="miter" stroke-miterlimit="10" stroke-dasharray="" stroke-dashoffset="0" font-family="Arial Black" font-weight="normal" text-anchor="start" style="mix-blend-mode: normal"><tspan x="0" dy="0">Is valid</tspan><tspan x="0" dy="48px">only with</tspan><tspan x="0" dy="48px">numbers</tspan></text><text transform="translate(150.81669,145.20461) scale(0.33902,0.3686)" font-size="40" xml:space="preserve" fill="#ffffff" fill-rule="nonzero" stroke="none" stroke-width="1" stroke-linecap="butt" stroke-linejoin="miter" stroke-miterlimit="10" stroke-dasharray="" stroke-dashoffset="0" font-family="Sans Serif" font-weight="normal" text-anchor="start" style="mix-blend-mode: normal"><tspan x="0" dy="0">1: PINCO BOT</tspan></text><path d="M164.81669,139.68857c0,6.07513 -4.02944,11 -9,11c-4.97056,0 -9,-4.92487 -9,-11c0,-6.07513 4.02944,-11 9,-11c4.97056,0 9,4.92487 9,11z" fill="none" stroke="#ff0000" stroke-width="2.5" stroke-linecap="butt"></path><path d="M164.69169,126.43857l4.75,0.25l0.75,2.75l-5.5,-2l-0.25,-3.5l5.5,1.75l7,-1.75l71.75,-1.25c0,0 8.03485,0.81151 11.481,2.29415c3.70215,1.59279 10.019,6.95585 10.019,6.95585l0.5,4.25" fill="none" stroke="#ff0000" stroke-width="2.5" stroke-linecap="round"></path><text transform="translate(148.65002,164.70461) scale(0.3686,0.3686)" font-size="40" xml:space="preserve" fill="#ffffff" fill-rule="nonzero" stroke="none" stroke-width="1" stroke-linecap="butt" stroke-linejoin="miter" stroke-miterlimit="10" stroke-dasharray="" stroke-dashoffset="0" font-family="Sans Serif" font-weight="normal" text-anchor="start" style="mix-blend-mode: normal"><tspan x="0" dy="0">2: Cat</tspan></text><text transform="translate(148.56669,185.45461) scale(0.3686,0.3686)" font-size="40" xml:space="preserve" fill="#ffffff" fill-rule="nonzero" stroke="none" stroke-width="1" stroke-linecap="butt" stroke-linejoin="miter" stroke-miterlimit="10" stroke-dasharray="" stroke-dashoffset="0" font-family="Sans Serif" font-weight="normal" text-anchor="start" style="mix-blend-mode: normal"><tspan x="0" dy="0">3: Dragon</tspan></text></g></g></svg>