<svg version="1.1" xmlns="http://www.w3.org/2000/svg" xmlns:xlink="http://www.w3.org/1999/xlink" width="65.35146" height="58.6871" viewBox="0,0,65.35146,58.6871"><g transform="translate(-208.22646,-140.71292)"><g data-paper-data="{&quot;isPaintingLayer&quot;:true}" fill-rule="nonzero" stroke-linecap="butt" stroke-linejoin="miter" stroke-miterlimit="10" stroke-dasharray="" stroke-dashoffset="0" style="mix-blend-mode: normal"><path d="M221.30002,198.20002v-36.4h37.2v36.4z" fill="#ffffff" stroke="none" stroke-width="0"></path><path d="M221.60002,198.40002v-36.8h36.8v36.8z" fill="none" stroke="#4f4f4f" stroke-width="2"></path><text transform="translate(208.68934,154.13615) scale(0.92574,0.92574)" font-size="16" xml:space="preserve" fill="#4f4f4f" fill-rule="nonzero" stroke="none" stroke-width="1" stroke-linecap="butt" stroke-linejoin="miter" stroke-miterlimit="10" stroke-dasharray="" stroke-dashoffset="0" font-family="&quot;Helvetica Neue&quot;, Helvetica, sans-serif" font-weight="500" text-anchor="start" style="mix-blend-mode: normal"><tspan x="0" dy="0">new code</tspan></text><g stroke-width="1"><path d="M225.80412,172.3026c0.04411,-0.67173 0.62439,-1.18051 1.29612,-1.1364l2.43253,0.15971c0.60813,0.03993 0.89223,0.36396 1.17633,0.68799l1.13641,1.29612c0.2841,0.32403 0.56821,0.64807 1.17633,0.68799l3.6488,0.23957c0.60813,0.03993 0.93216,-0.24418 1.25619,-0.52828l1.29612,-1.13641c0.32403,-0.2841 0.64807,-0.5682 1.25619,-0.52827l13.37892,0.87843c0.67173,0.04411 1.18051,0.62439 1.1364,1.29612l-0.79856,12.16264c-0.04411,0.67173 -0.6244,1.18051 -1.29613,1.1364l-13.37891,-0.87842c-0.60813,-0.03993 -0.93216,0.24418 -1.25619,0.52828l-1.29612,1.13641c-0.32403,0.2841 -0.64807,0.5682 -1.2562,0.52827l-3.64879,-0.23957c-0.60813,-0.03993 -0.89224,-0.36396 -1.17634,-0.68799l-1.13641,-1.29612c-0.2841,-0.32403 -0.56821,-0.64807 -1.17633,-0.68799l-2.43253,-0.15971c-0.67173,-0.04411 -1.18052,-0.62439 -1.13641,-1.29612z" fill="#4c97ff" stroke="#3373cc"></path><g><path d="M244.54564,184.52669c-2.68689,-0.17641 -4.72204,-2.49759 -4.54563,-5.18448v0c0.17641,-2.68689 2.49759,-4.72205 5.18448,-4.54564l2.43254,0.15972c2.68689,0.17641 4.72205,2.49759 4.54563,5.18448v0c-0.17641,2.68689 -2.49759,4.72205 -5.18449,4.54563z" fill="#ffffff" stroke="#3373cc"></path><text transform="translate(245.83777,183.45109) rotate(3.75667) scale(0.30472,0.30472)" font-size="16" xml:space="preserve" fill="#575e75" fill-rule="nonzero" stroke="none" stroke-width="1" stroke-linecap="butt" stroke-linejoin="miter" stroke-miterlimit="10" stroke-dasharray="" stroke-dashoffset="0" font-family="&quot;Helvetica Neue&quot;, Helvetica, sans-serif" font-weight="500" text-anchor="start" style="mix-blend-mode: normal"><tspan x="0" dy="0"> </tspan></text></g><text transform="translate(229.6949,183.28563) rotate(11.91851) scale(0.82045,0.82045)" font-size="16" xml:space="preserve" fill="#ffffff" fill-rule="nonzero" stroke="#3373cc" stroke-width="1" stroke-linecap="butt" stroke-linejoin="miter" stroke-miterlimit="10" stroke-dasharray="" stroke-dashoffset="0" font-family="&quot;Helvetica Neue&quot;, Helvetica, sans-serif" font-weight="500" text-anchor="start" style="mix-blend-mode: normal"><tspan x="0" dy="0">+</tspan></text></g></g></g></svg>