<svg version="1.1" xmlns="http://www.w3.org/2000/svg" xmlns:xlink="http://www.w3.org/1999/xlink" width="57.52606" height="58.54954" viewBox="0,0,57.52606,58.54954"><g transform="translate(-211.25293,-140.85048)"><g data-paper-data="{&quot;isPaintingLayer&quot;:true}" fill-rule="nonzero" stroke-linecap="butt" stroke-linejoin="miter" stroke-miterlimit="10" stroke-dasharray="" stroke-dashoffset="0" style="mix-blend-mode: normal"><path d="M221.30002,198.20002v-36.4h37.2v36.4z" fill="#ffffff" stroke="none" stroke-width="0"></path><path d="M221.60002,198.40002v-36.8h36.8v36.8z" fill="none" stroke="#4f4f4f" stroke-width="2"></path><text transform="translate(211.7158,154.27371) scale(0.92574,0.92574)" font-size="16" xml:space="preserve" fill="#4f4f4f" fill-rule="nonzero" stroke="none" stroke-width="1" stroke-linecap="butt" stroke-linejoin="miter" stroke-miterlimit="10" stroke-dasharray="" stroke-dashoffset="0" font-family="&quot;Helvetica Neue&quot;, Helvetica, sans-serif" font-weight="500" text-anchor="start" style="mix-blend-mode: normal"><tspan x="0" dy="0">play test</tspan></text><path d="M253.26651,178.28727l-4.24599,10.39381c-0.08425,0.20622 -0.25098,0.37875 -0.44966,0.39384c-1.79163,0.61569 -3.67732,0.51916 -5.36838,-0.17166c-1.69106,-0.69081 -3.08813,-1.98346 -3.95305,-3.63625c-0.7017,-1.34547 -1.8025,-2.42084 -3.20484,-2.99371c-1.2786,-0.52232 -2.68445,-0.61534 -4.05257,-0.21167l-2.81382,6.88796c-0.16849,0.41245 -0.63325,0.60762 -1.0457,0.43913c-0.41245,-0.16849 -0.60762,-0.63325 -0.43913,-1.0457l7.17775,-17.57047c0.13479,-0.32996 0.42526,-0.45194 0.68204,-0.49143c1.75793,-0.53321 3.56113,-0.47037 5.21094,0.2036c1.69106,0.69081 3.12937,2.00031 3.99429,3.6531c0.7017,1.34547 1.81936,2.3796 3.2217,2.95247c1.40234,0.57287 2.92437,0.6171 4.36744,0.14778c0.31487,-0.06388 0.62043,0.01281 0.81735,0.23764c0.19692,0.22483 0.21956,0.52285 0.10162,0.81157z" fill="#549a10" stroke="none" stroke-width="1"></path></g></g></svg>